<?xml version="1.0" encoding="UTF-8" standalone="no"?><!DOCTYPE svg PUBLIC "-//W3C//DTD SVG 1.1//EN" "http://www.w3.org/Graphics/SVG/1.1/DTD/svg11.dtd"><svg width="100%" height="100%" viewBox="0 0 464 492" version="1.1" xmlns="http://www.w3.org/2000/svg" xmlns:xlink="http://www.w3.org/1999/xlink" xml:space="preserve" xmlns:serif="http://www.serif.com/" style="fill-rule:evenodd;clip-rule:evenodd;stroke-linejoin:round;stroke-miterlimit:2;"><path d="M187.808,150.083l0,25.118l83.726,0l0,-25.118c0,-23.129 -18.734,-41.863 -41.863,-41.863c-23.129,0 -41.863,18.734 -41.863,41.863Zm-33.49,25.118l-0,-25.118c-0,-41.601 33.752,-75.353 75.353,-75.353c41.601,0 75.353,33.752 75.353,75.353l0,25.118l8.373,0c18.472,0 33.49,15.018 33.49,33.49l0,100.472c0,18.472 -15.018,33.49 -33.49,33.49l-167.452,-0c-18.472,-0 -33.49,-15.018 -33.49,-33.49l-0,-100.472c-0,-18.472 15.018,-33.49 33.49,-33.49l8.373,0Z" style="fill:#020420;fill-rule:nonzero;"/><path d="M231.775,47.707l-176.728,74.941c-5.698,2.414 -8.788,7.532 -8.692,12.361c0.483,88.268 37.084,240.756 180.012,309.13c3.477,1.642 7.533,1.642 10.913,-0c142.928,-68.47 179.529,-220.862 179.915,-309.227c0,-4.828 -2.993,-9.85 -8.691,-12.361l-176.729,-74.844Zm12.941,-44.906l181.847,77.161c21.246,8.982 37.084,29.938 36.987,55.24c-0.482,95.8 -39.884,271.08 -206.279,350.753c-16.128,7.726 -34.863,7.726 -50.991,-0c-166.395,-79.673 -205.797,-254.953 -206.28,-350.753c-0.096,-25.302 15.742,-46.258 36.988,-55.24l181.943,-77.161c3.96,-1.835 8.402,-2.801 12.844,-2.801c4.443,0 8.885,0.966 12.941,2.801Z" style="fill:#00dc82;fill-rule:nonzero;"/><g id="g2189"><path d="M239.9,303.78l59.473,-0c1.898,-0 3.714,-0.668 5.357,-1.609c1.645,-0.938 3.34,-2.122 4.288,-3.75c0.947,-1.629 1.609,-3.479 1.606,-5.357c-0,-1.882 -0.658,-3.73 -1.606,-5.358l-40.188,-69.121c-0.945,-1.628 -2.105,-2.807 -3.749,-3.748c-1.642,-0.942 -3.998,-1.61 -5.893,-1.61c-1.897,0 -3.715,0.668 -5.357,1.61c-1.646,0.941 -2.803,2.12 -3.752,3.748l-10.179,17.683l-20.363,-34.293c-0.947,-1.627 -2.105,-3.343 -3.749,-4.285c-1.645,-0.941 -3.461,-1.071 -5.359,-1.071c-1.897,0 -3.713,0.13 -5.358,1.071c-1.643,0.942 -3.338,2.658 -4.285,4.285l-49.831,85.731c-0.951,1.628 -1.071,3.476 -1.071,5.358c-0,1.878 0.122,3.728 1.071,5.357c0.948,1.628 2.643,2.812 4.287,3.75c1.642,0.941 3.46,1.609 5.358,1.609l37.505,-0c14.863,-0 25.68,-6.667 33.221,-19.291l18.216,-31.61l9.646,-16.611l29.469,50.366l-39.115,0l-9.642,17.146Zm-42.33,-17.146l-26.254,0l39.113,-67.513l19.823,33.758l-13.129,22.89c-5.006,8.191 -10.72,10.865 -19.553,10.865Z" style="fill:#00dc82;fill-rule:nonzero;"/></g></svg>