<?xml version="1.0" encoding="UTF-8"?>
<svg id="Layer_2" xmlns="http://www.w3.org/2000/svg" viewBox="0 0 602.13 452.73">
  <defs>
    <style>
      .cls-1, .cls-2 {
        fill: #fff;
      }

      .cls-2 {
        stroke: #000;
        stroke-miterlimit: 10;
      }

      .cls-3 {
        fill: #99f1cd;
      }

      .cls-4 {
        fill: #f2f2f2;
      }

      .cls-5 {
        fill: #d8d8d8;
      }

      .cls-6 {
        fill: #e6e6e6;
      }
    </style>
  </defs>
  <g id="Layer_1-2" data-name="Layer_1">
    <path class="cls-2" d="M39,.5h524.13c21.26,0,38.5,18.56,38.5,41.45v368.84c0,22.89-17.24,41.45-38.5,41.45H39c-21.26,0-38.5-18.56-38.5-41.45V41.95C.5,19.06,17.74.5,39,.5Z"/>
    <path class="cls-5" d="M152.89,184.33H57.89c-4.14,0-7.5-3.36-7.5-7.5s3.36-7.5,7.5-7.5h95c4.14,0,7.5,3.36,7.5,7.5s-3.36,7.5-7.5,7.5Z"/>
    <path class="cls-5" d="M204.39,212.33H56.39c-3.31,0-6-2.69-6-6s2.69-6,6-6h148c3.31,0,6,2.69,6,6s-2.69,6-6,6Z"/>
    <path class="cls-5" d="M204.39,230.33H56.39c-3.31,0-6-2.69-6-6s2.69-6,6-6h148c3.31,0,6,2.69,6,6s-2.69,6-6,6Z"/>
    <path class="cls-5" d="M208.52,362.01H57.52c-2.48,0-4.5-2.02-4.5-4.5s2.02-4.5,4.5-4.5h151c2.48,0,4.5,2.02,4.5,4.5s-2.02,4.5-4.5,4.5Z"/>
    <path class="cls-5" d="M208.52,380.01H57.52c-2.48,0-4.5-2.02-4.5-4.5s2.02-4.5,4.5-4.5h151c2.48,0,4.5,2.02,4.5,4.5s-2.02,4.5-4.5,4.5Z"/>
    <path class="cls-5" d="M82.89,259.33h-25c-4.14,0-7.5-3.36-7.5-7.5s3.36-7.5,7.5-7.5h25c4.14,0,7.5,3.36,7.5,7.5s-3.36,7.5-7.5,7.5Z"/>
    <path class="cls-3" d="M550.61,306.33h-292.43c-4.84,0-8.78-3.94-8.78-8.78v-166.43c0-4.84,3.94-8.78,8.78-8.78h292.43c4.84,0,8.78,3.94,8.78,8.78v166.43c0,4.84-3.94,8.78-8.78,8.78Z"/>
    <path class="cls-5" d="M133.02,347.01c-8,0-14.5-6.5-14.5-14.5s6.5-14.5,14.5-14.5,14.5,6.5,14.5,14.5-6.5,14.5-14.5,14.5Z"/>
    <path class="cls-4" d="M600.81,36.65l-599.52.05c.7-4.88,1.74-9.82,4.05-13.95C12.23,9.2,25.29-.4,43.57,1h514.76c19.61-1.26,31.41,8.47,38.35,21.79,2.88,4.42,3.5,9.02,4.12,13.86Z"/>
    <path class="cls-3" d="M125.53,144.07H57.88c-4.13,0-7.49-3.36-7.49-7.49v-6.77c0-4.13,3.36-7.49,7.49-7.49h67.66c4.13,0,7.49,3.36,7.49,7.49v6.77c0,4.13-3.36,7.49-7.49,7.49Z"/>
    <path class="cls-3" d="M556.71,86.52h-67.66c-4.13,0-7.49-3.36-7.49-7.49v-6.77c0-4.13,3.36-7.49,7.49-7.49h67.66c4.13,0,7.49,3.36,7.49,7.49v6.77c0,4.13-3.36,7.49-7.49,7.49Z"/>
    <path class="cls-3" d="M551.4,379.13h-67.66c-4.4,0-7.99-3.58-7.99-7.99v-6.77c0-4.4,3.58-7.99,7.99-7.99h67.66c4.4,0,7.99,3.58,7.99,7.99v6.77c0,4.4-3.58,7.99-7.99,7.99ZM483.75,358.39c-3.3,0-5.99,2.69-5.99,5.99v6.77c0,3.3,2.69,5.99,5.99,5.99h67.66c3.3,0,5.99-2.69,5.99-5.99v-6.77c0-3.3-2.69-5.99-5.99-5.99h-67.66Z"/>
    <path class="cls-6" d="M101.39,81.64h-45c-3.31,0-6-2.69-6-6s2.69-6,6-6h45c3.31,0,6,2.69,6,6s-2.69,6-6,6Z"/>
    <path class="cls-6" d="M370.39,81.64h-45c-3.31,0-6-2.69-6-6s2.69-6,6-6h45c3.31,0,6,2.69,6,6s-2.69,6-6,6Z"/>
    <path class="cls-6" d="M455.39,81.64h-45c-3.31,0-6-2.69-6-6s2.69-6,6-6h45c3.31,0,6,2.69,6,6s-2.69,6-6,6Z"/>
    <path class="cls-6" d="M449.52,379.14h-215.26c-2,0-3.63-1.63-3.63-3.63s1.63-3.63,3.63-3.63h215.26c2,0,3.63,1.63,3.63,3.63s-1.63,3.63-3.63,3.63h0Z"/>
    <path class="cls-1" d="M411.69,20.4h-215.26c-2,0-3.63-1.63-3.63-3.63s1.63-3.63,3.63-3.63h215.26c2,0,3.63,1.63,3.63,3.63s-1.63,3.63-3.63,3.63h0Z"/>
    <path class="cls-6" d="M449.52,361.14h-215.26c-2,0-3.63-1.63-3.63-3.63s1.63-3.63,3.63-3.63h215.26c2,0,3.63,1.63,3.63,3.63s-1.63,3.63-3.63,3.63h0Z"/>
  </g>
</svg>