<svg xmlns="http://www.w3.org/2000/svg" width="586" height="390" viewBox="0 0 586 390"
  xmlns:xlink="http://www.w3.org/1999/xlink">
  <rect x="1" y="1" width="584" height="388" fill="#fff" stroke-width="0" />
  <rect x="1" y="1" width="584" height="388" fill="none" stroke="#d8d8d8" stroke-miterlimit="10"
    stroke-width="2" />
  <path
    d="m85.5,50.5H30.5c-4.13574,0-7.5-3.36426-7.5-7.5s3.36426-7.5,7.5-7.5h55c4.13574,0,7.5,3.36426,7.5,7.5s-3.36426,7.5-7.5,7.5Z"
    fill="#d8d8d8" stroke-width="0" />
  <path
    d="m125.5,114.5H30.5c-4.13574,0-7.5-3.36426-7.5-7.5s3.36426-7.5,7.5-7.5h95c4.13574,0,7.5,3.36426,7.5,7.5s-3.36426,7.5-7.5,7.5Z"
    fill="#d8d8d8" stroke-width="0" />
  <path
    d="m177,142.5H29c-3.30859,0-6-2.69141-6-6s2.69141-6,6-6h148c3.30859,0,6,2.69141,6,6s-2.69141,6-6,6Z"
    fill="#d8d8d8" stroke-width="0" />
  <path
    d="m177,160.5H29c-3.30859,0-6-2.69141-6-6s2.69141-6,6-6h148c3.30859,0,6,2.69141,6,6s-2.69141,6-6,6Z"
    fill="#d8d8d8" stroke-width="0" />
  <path
    d="m178.5,340.5H27.5c-2.48145,0-4.5-2.01855-4.5-4.5s2.01855-4.5,4.5-4.5h151c2.48145,0,4.5,2.01855,4.5,4.5s-2.01855,4.5-4.5,4.5Z"
    fill="#d8d8d8" stroke-width="0" />
  <path
    d="m178.5,358.5H27.5c-2.48145,0-4.5-2.01855-4.5-4.5s2.01855-4.5,4.5-4.5h151c2.48145,0,4.5,2.01855,4.5,4.5s-2.01855,4.5-4.5,4.5Z"
    fill="#d8d8d8" stroke-width="0" />
  <path
    d="m464.5,46.5h-25c-4.13574,0-7.5-3.36426-7.5-7.5s3.36426-7.5,7.5-7.5h25c4.13574,0,7.5,3.36426,7.5,7.5s-3.36426,7.5-7.5,7.5Z"
    fill="#d8d8d8" stroke-width="0" />
  <path
    d="m55.5,189.5h-25c-4.13574,0-7.5-3.36426-7.5-7.5s3.36426-7.5,7.5-7.5h25c4.13574,0,7.5,3.36426,7.5,7.5s-3.36426,7.5-7.5,7.5Z"
    fill="#d8d8d8" stroke-width="0" />
  <path
    d="m509.5,46.5h-25c-4.13574,0-7.5-3.36426-7.5-7.5s3.36426-7.5,7.5-7.5h25c4.13574,0,7.5,3.36426,7.5,7.5s-3.36426,7.5-7.5,7.5Z"
    fill="#00dc82" stroke-width="0" />
  <path
    d="m554.5,46.5h-25c-4.13574,0-7.5-3.36426-7.5-7.5s3.36426-7.5,7.5-7.5h25c4.13574,0,7.5,3.36426,7.5,7.5s-3.36426,7.5-7.5,7.5Z"
    fill="#d8d8d8" stroke-width="0" />
  <path
    d="m553.2168,261.5h-292.43359c-4.84277,0-8.7832-3.94043-8.7832-8.7832V86.2832c0-4.84277,3.94043-8.7832,8.7832-8.7832h292.43359c4.84277,0,8.7832,3.94043,8.7832,8.7832v166.43359c0,4.84277-3.94043,8.7832-8.7832,8.7832Z"
    fill="#00dc82" stroke-width="0" />
  <path
    d="m103,325.5c-7.99512,0-14.5-6.50488-14.5-14.5s6.50488-14.5,14.5-14.5,14.5,6.50488,14.5,14.5-6.50488,14.5-14.5,14.5Z"
    fill="#d8d8d8" stroke-width="0" />
  <path
    d="m368.5,340.5h-151c-2.48145,0-4.5-2.01855-4.5-4.5s2.01855-4.5,4.5-4.5h151c2.48145,0,4.5,2.01855,4.5,4.5s-2.01855,4.5-4.5,4.5Z"
    fill="#d8d8d8" stroke-width="0" />
  <path
    d="m368.5,358.5h-151c-2.48145,0-4.5-2.01855-4.5-4.5s2.01855-4.5,4.5-4.5h151c2.48145,0,4.5,2.01855,4.5,4.5s-2.01855,4.5-4.5,4.5Z"
    fill="#d8d8d8" stroke-width="0" />
  <path
    d="m293,325.5c-7.99512,0-14.5-6.50488-14.5-14.5s6.50488-14.5,14.5-14.5,14.5,6.50488,14.5,14.5-6.50488,14.5-14.5,14.5Z"
    fill="#d8d8d8" stroke-width="0" />
  <path
    d="m558.5,340.5h-151c-2.48145,0-4.5-2.01855-4.5-4.5s2.01855-4.5,4.5-4.5h151c2.48145,0,4.5,2.01855,4.5,4.5s-2.01855,4.5-4.5,4.5Z"
    fill="#d8d8d8" stroke-width="0" />
  <path
    d="m558.5,358.5h-151c-2.48145,0-4.5-2.01855-4.5-4.5s2.01855-4.5,4.5-4.5h151c2.48145,0,4.5,2.01855,4.5,4.5s-2.01855,4.5-4.5,4.5Z"
    fill="#d8d8d8" stroke-width="0" />
  <path
    d="m483,325.5c-7.99512,0-14.5-6.50488-14.5-14.5s6.50488-14.5,14.5-14.5,14.5,6.50488,14.5,14.5-6.50488,14.5-14.5,14.5Z"
    fill="#d8d8d8" stroke-width="0" />
</svg>