<?xml version="1.0" encoding="UTF-8" standalone="no"?>
<!DOCTYPE svg PUBLIC "-//W3C//DTD SVG 1.1//EN" "http://www.w3.org/Graphics/SVG/1.1/DTD/svg11.dtd">
<svg width="100%" height="100%" viewBox="0 0 512 512" version="1.1" xmlns="http://www.w3.org/2000/svg" xmlns:xlink="http://www.w3.org/1999/xlink" xml:space="preserve" xmlns:serif="http://www.serif.com/" style="fill-rule:evenodd;clip-rule:evenodd;stroke-linejoin:round;stroke-miterlimit:2;">
    <g id="lock.svg" transform="matrix(0.523287,0,0,0.523287,255.352,220.184)">
        <g transform="matrix(1,0,0,1,-224,-256)">
            <path d="M144,144L144,192L304,192L304,144C304,99.8 268.2,64 224,64C179.8,64 144,99.8 144,144ZM80,192L80,144C80,64.5 144.5,0 224,0C303.5,0 368,64.5 368,144L368,192L384,192C419.3,192 448,220.7 448,256L448,448C448,483.3 419.3,512 384,512L64,512C28.7,512 0,483.3 0,448L0,256C0,220.7 28.7,192 64,192L80,192Z" style="fill:rgb(2,4,32);fill-rule:nonzero;"/>
        </g>
    </g>
    <g transform="matrix(0.965729,0,0,0.965729,10.2298,11.493)">
        <path d="M256,49.4L73,127C67.1,129.5 63.9,134.8 64,139.8C64.5,231.2 102.4,389.1 250.4,459.9C254,461.6 258.2,461.6 261.7,459.9C409.7,389 447.6,231.2 448,139.7C448,134.7 444.9,129.5 439,126.9L256,49.4ZM269.4,2.9L457.7,82.8C479.7,92.1 496.1,113.8 496,140C495.5,239.2 454.7,420.7 282.4,503.2C265.7,511.2 246.3,511.2 229.6,503.2C57.3,420.7 16.5,239.2 16,140C15.9,113.8 32.3,92.1 54.3,82.8L242.7,2.9C246.8,1 251.4,0 256,0C260.6,0 265.2,1 269.4,2.9Z" style="fill:rgb(0,220,130);fill-rule:nonzero;"/>
    </g>
    <g transform="matrix(0.971174,0,0,0.971174,-0.943034,180.341)">
        <g id="g2189">
            <path d="M274.435,138.937L335.673,138.937C337.627,138.937 339.497,138.25 341.189,137.281C342.883,136.315 344.628,135.096 345.604,133.419C346.579,131.742 347.261,129.837 347.258,127.903C347.258,125.965 346.581,124.063 345.604,122.386L304.224,51.214C303.25,49.537 302.056,48.323 300.363,47.354C298.673,46.384 296.247,45.697 294.295,45.697C292.342,45.697 290.47,46.384 288.779,47.354C287.085,48.323 285.893,49.537 284.916,51.214L274.435,69.422L253.467,34.111C252.492,32.435 251.3,30.668 249.607,29.699C247.913,28.73 246.043,28.596 244.089,28.596C242.136,28.596 240.266,28.73 238.572,29.699C236.88,30.668 235.135,32.435 234.16,34.111L182.85,122.386C181.871,124.063 181.747,125.965 181.747,127.903C181.747,129.837 181.873,131.742 182.85,133.419C183.826,135.096 185.571,136.315 187.264,137.281C188.955,138.25 190.827,138.937 192.781,138.937L231.399,138.937C246.703,138.937 257.842,132.073 265.606,119.074L284.363,86.526L294.295,69.422L324.639,121.283L284.363,121.283L274.435,138.937ZM230.848,121.283L203.815,121.283L244.089,51.766L264.501,86.526L250.982,110.095C245.827,118.529 239.944,121.283 230.848,121.283Z" style="fill:rgb(0,220,130);fill-rule:nonzero;"/>
        </g>
    </g>
</svg>
