<?xml version="1.0" encoding="utf-8"?>
<svg viewBox="0 0 512 512" xmlns="http://www.w3.org/2000/svg">
  <path d="M256 49.4L73 127c-5.9 2.5-9.1 7.8-9 12.8c.5 91.4 38.4 249.3 186.4 320.1c3.6 1.7 7.8 1.7 11.3 0C409.7 389 447.6 231.2 448 139.7c0-5-3.1-10.2-9-12.8L256 49.4zM269.4 2.9L457.7 82.8c22 9.3 38.4 31 38.3 57.2c-.5 99.2-41.3 280.7-213.6 363.2c-16.7 8-36.1 8-52.8 0C57.3 420.7 16.5 239.2 16 140c-.1-26.2 16.3-47.9 38.3-57.2L242.7 2.9C246.8 1 251.4 0 256 0s9.2 1 13.4 2.9z" style="fill: rgb(0, 220, 130);"/>
  <g transform="matrix(1.762602806091, 0, 0, 1.762602806091, -79.141024170655, 94.791006314906)" id="g2189" style="transform-origin: 172.491px 74.2462px;">
    <g transform="matrix(0.007412, 0, 0, 0.007412, 317.223912, 68.109544)" id="g2202" style="">
      <path d="M -3436.8,14543.2 C -4284.8,14015.2 -5468.8,13687.2 -6764.8,13687.2 C -9372.8,13687.2 -11484.8,14991.2 -11484.8,16599.2 C -11484.8,18071.2 -9724.8,19279.2 -7444.8,19487.2 L -7444.8,18639.2 C -8980.8,18447.2 -10132.8,17607.2 -10132.8,16599.2 C -10132.8,15455.2 -8628.8,14519.2 -6764.8,14519.2 C -5836.8,14519.2 -4996.8,14751.2 -4388.8,15127.2 L -5252.8,15663.2 L -2556.8,15663.2 L -2556.8,13999.2 L -3436.8,14543.2 z " style="fill:#ccc;fill-opacity:1" id="path2204"/>
      <path d="M -7444.8,12247.2 L -7444.8,18639.2 L -7444.8,19487.2 L -6092.8,18639.2 L -6092.8,11375.2 L -7444.8,12247.2 z " style="fill:#ff6200;fill-opacity:1" id="path2206"/>
    </g>
    <path d="M 274.435 138.937 L 335.673 138.937 C 337.627 138.937 339.497 138.25 341.189 137.281 C 342.883 136.315 344.628 135.096 345.604 133.419 C 346.579 131.742 347.261 129.837 347.258 127.903 C 347.258 125.965 346.581 124.063 345.604 122.386 L 304.224 51.214 C 303.25 49.537 302.056 48.323 300.363 47.354 C 298.673 46.384 296.247 45.697 294.295 45.697 C 292.342 45.697 290.47 46.384 288.779 47.354 C 287.085 48.323 285.893 49.537 284.916 51.214 L 274.435 69.422 L 253.467 34.111 C 252.492 32.435 251.3 30.668 249.607 29.699 C 247.913 28.73 246.043 28.596 244.089 28.596 C 242.136 28.596 240.266 28.73 238.572 29.699 C 236.88 30.668 235.135 32.435 234.16 34.111 L 182.85 122.386 C 181.871 124.063 181.747 125.965 181.747 127.903 C 181.747 129.837 181.873 131.742 182.85 133.419 C 183.826 135.096 185.571 136.315 187.264 137.281 C 188.955 138.25 190.827 138.937 192.781 138.937 L 231.399 138.937 C 246.703 138.937 257.842 132.073 265.606 119.074 L 284.363 86.526 L 294.295 69.422 L 324.639 121.283 L 284.363 121.283 L 274.435 138.937 Z M 230.848 121.283 L 203.815 121.283 L 244.089 51.766 L 264.501 86.526 L 250.982 110.095 C 245.827 118.529 239.944 121.283 230.848 121.283 Z" fill="#00DC82" style=""/>
  </g>
</svg>